<svg width="17" height="17" viewBox="0 0 17 17" fill="none" xmlns="http://www.w3.org/2000/svg">
<path d="M14.3537 0C14.8296 0 15.2859 0.189032 15.6224 0.525512C15.9589 0.861992 16.1479 1.31836 16.1479 1.79421V14.3537C16.1479 14.8296 15.9589 15.2859 15.6224 15.6224C15.2859 15.9589 14.8296 16.1479 14.3537 16.1479H1.79421C1.31836 16.1479 0.861992 15.9589 0.525512 15.6224C0.189032 15.2859 0 14.8296 0 14.3537V1.79421C0 1.31836 0.189032 0.861992 0.525512 0.525512C0.861992 0.189032 1.31836 0 1.79421 0H14.3537ZM13.9051 13.9051V9.15048C13.9051 8.37484 13.597 7.63096 13.0486 7.0825C12.5001 6.53404 11.7562 6.22592 10.9806 6.22592C10.218 6.22592 9.3299 6.69241 8.89929 7.39215V6.39637H6.39637V13.9051H8.89929V9.48241C8.89929 8.79164 9.4555 8.22646 10.1463 8.22646C10.4794 8.22646 10.7988 8.35879 11.0344 8.59432C11.2699 8.82986 11.4022 9.14931 11.4022 9.48241V13.9051H13.9051ZM3.48077 4.98791C3.88049 4.98791 4.26384 4.82912 4.54648 4.54648C4.82912 4.26384 4.98791 3.88049 4.98791 3.48077C4.98791 2.64646 4.31508 1.96466 3.48077 1.96466C3.07867 1.96466 2.69305 2.12439 2.40872 2.40872C2.12439 2.69305 1.96466 3.07867 1.96466 3.48077C1.96466 4.31508 2.64646 4.98791 3.48077 4.98791ZM4.72775 13.9051V6.39637H2.24277V13.9051H4.72775Z" fill="#6668AC"/>
</svg>
